HIERARCHY
ROOT Hips
{
  OFFSET -359.316 73.0165 806.501
  CHANNELS 6 Xposition Yposition Zposition Zrotation Xrotation Yrotation
  JOINT Spine
  {
    OFFSET 0 8 0
    CHANNELS 6 Xposition Yposition Zposition Zrotation Xrotation Yrotation
    JOINT Spine1
    {
      OFFSET 6.03569e-05 7.9998 0.0561398
      CHANNELS 6 Xposition Yposition Zposition Zrotation Xrotation Yrotation
      JOINT Spine2
      {
        OFFSET -3.25781e-05 8 1.39848e-05
        CHANNELS 6 Xposition Yposition Zposition Zrotation Xrotation Yrotation
        JOINT Spine3
        {
          OFFSET 0 8 0
          CHANNELS 6 Xposition Yposition Zposition Zrotation Xrotation Yrotation
          JOINT Neck
          {
            OFFSET 6.8421e-05 17 0.000220844
            CHANNELS 6 Xposition Yposition Zposition Zrotation Xrotation Yrotation
            JOINT Head
            {
              OFFSET -3.37173e-05 10.8 -3.18453e-05
              CHANNELS 6 Xposition Yposition Zposition Zrotation Xrotation Yrotation
              End Site
              {
                OFFSET 0 20.25 0
              }
            }
          }
          JOINT LeftShoulder
          {
            OFFSET 5.0001 17 0.000220041
            CHANNELS 6 Xposition Yposition Zposition Zrotation Xrotation Yrotation
            JOINT LeftShoulder2
            {
              OFFSET 6.45 0 0
              CHANNELS 6 Xposition Yposition Zposition Zrotation Xrotation Yrotation
              JOINT LeftArm
              {
                OFFSET 6.44996 1.55328e-05 0.000139649
                CHANNELS 6 Xposition Yposition Zposition Zrotation Xrotation Yrotation
                JOINT LeftForeArm
                {
                  OFFSET -5.45856e-05 -32.4 -2.0875
                  CHANNELS 6 Xposition Yposition Zposition Zrotation Xrotation Yrotation
                  JOINT LeftHand
                  {
                    OFFSET 8.64811e-05 -25.6539 2.00005
                    CHANNELS 6 Xposition Yposition Zposition Zrotation Xrotation Yrotation
                    JOINT LeftHandThumb1
                    {
                      OFFSET -0.499986 -1.49994 2.64992
                      CHANNELS 6 Xposition Yposition Zposition Zrotation Xrotation Yrotation
                      JOINT LeftHandThumb2
                      {
                        OFFSET -4.87216e-05 -3.79995 3.69998
                        CHANNELS 6 Xposition Yposition Zposition Zrotation Xrotation Yrotation
                        JOINT LeftHandThumb3
                        {
                          OFFSET -8.98812e-05 -2.99995 2.70004
                          CHANNELS 6 Xposition Yposition Zposition Zrotation Xrotation Yrotation
                          End Site
                          {
                            OFFSET 3.21522e-05 -2.30003 1.8
                          }
                        }
                      }
                    }
                    JOINT LeftHandIndex
                    {
                      OFFSET -2.57404e-05 -1.90001 1.60003
                      CHANNELS 6 Xposition Yposition Zposition Zrotation Xrotation Yrotation
                      JOINT LeftHandIndex1
                      {
                        OFFSET 0 -8.30001 1.89997
                        CHANNELS 6 Xposition Yposition Zposition Zrotation Xrotation Yrotation
                        JOINT LeftHandIndex2
                        {
                          OFFSET 0.0314894 -4.49998 -6.85255e-05
                          CHANNELS 6 Xposition Yposition Zposition Zrotation Xrotation Yrotation
                          JOINT LeftHandIndex3
                          {
                            OFFSET 3.86145e-05 -3.40002 -1.1067e-05
                            CHANNELS 6 Xposition Yposition Zposition Zrotation Xrotation Yrotation
                            End Site
                            {
                              OFFSET -4.99504e-05 -2.60006 3.54464e-05
                            }
                          }
                        }
                      }
                    }
                    JOINT LeftHandMiddle
                    {
                      OFFSET -0.250012 -2.19998 0.400054
                      CHANNELS 6 Xposition Yposition Zposition Zrotation Xrotation Yrotation
                      JOINT LeftHandMiddle1
                      {
                        OFFSET -3.81086e-05 -8.30003 1.02258
                        CHANNELS 6 Xposition Yposition Zposition Zrotation Xrotation Yrotation
                        JOINT LeftHandMiddle2
                        {
                          OFFSET 1.56271e-05 -4.65003 -0.00167226
                          CHANNELS 6 Xposition Yposition Zposition Zrotation Xrotation Yrotation
                          JOINT LeftHandMiddle3
                          {
                            OFFSET -3.49787e-05 -3.29997 3.11436e-05
                            CHANNELS 6 Xposition Yposition Zposition Zrotation Xrotation Yrotation
                            End Site
                            {
                              OFFSET 0 -2.69996 0
                            }
                          }
                        }
                      }
                    }
                    JOINT LeftHandRing
                    {
                      OFFSET -0.500043 -2.09865 -0.800027
                      CHANNELS 6 Xposition Yposition Zposition Zrotation Xrotation Yrotation
                      JOINT LeftHandRing1
                      {
                        OFFSET 3.82959e-05 -7.75098 -0.199987
                        CHANNELS 6 Xposition Yposition Zposition Zrotation Xrotation Yrotation
                        JOINT LeftHandRing2
                        {
                          OFFSET -0.0453206 -3.79495 7.63396e-05
                          CHANNELS 6 Xposition Yposition Zposition Zrotation Xrotation Yrotation
                          JOINT LeftHandRing3
                          {
                            OFFSET 0.00444664 -3.39993 5.04938e-05
                            CHANNELS 6 Xposition Yposition Zposition Zrotation Xrotation Yrotation
                            End Site
                            {
                              OFFSET 4.07546e-05 -2.60003 -4.50562e-05
                            }
                          }
                        }
                      }
                    }
                    JOINT LeftHandPinky
                    {
                      OFFSET -0.749977 -1.74995 -1.84997
                      CHANNELS 6 Xposition Yposition Zposition Zrotation Xrotation Yrotation
                      JOINT LeftHandPinky1
                      {
                        OFFSET 3.94517e-05 -7.15008 -1.00005
                        CHANNELS 6 Xposition Yposition Zposition Zrotation Xrotation Yrotation
                        JOINT LeftHandPinky2
                        {
                          OFFSET 0.0565656 -2.99994 -5.32565e-05
                          CHANNELS 6 Xposition Yposition Zposition Zrotation Xrotation Yrotation
                          JOINT LeftHandPinky3
                          {
                            OFFSET -4.95246e-05 -2.35008 5.63519e-05
                            CHANNELS 6 Xposition Yposition Zposition Zrotation Xrotation Yrotation
                            End Site
                            {
                              OFFSET 2.10379e-05 -2.10003 -1.37954e-05
                            }
                          }
                        }
                      }
                    }
                  }
                }
              }
            }
          }
          JOINT RightShoulder
          {
            OFFSET -4.99994 17 0.00023136
            CHANNELS 6 Xposition Yposition Zposition Zrotation Xrotation Yrotation
            JOINT RightShoulder2
            {
              OFFSET -6.45 0 0
              CHANNELS 6 Xposition Yposition Zposition Zrotation Xrotation Yrotation
              JOINT RightArm
              {
                OFFSET -6.44999 -1.83797e-05 0
                CHANNELS 6 Xposition Yposition Zposition Zrotation Xrotation Yrotation
                JOINT RightForeArm
                {
                  OFFSET 0 -32.4 -2.00004
                  CHANNELS 6 Xposition Yposition Zposition Zrotation Xrotation Yrotation
                  JOINT RightHand
                  {
                    OFFSET 0.0728195 -25.6499 2.00008
                    CHANNELS 6 Xposition Yposition Zposition Zrotation Xrotation Yrotation
                    JOINT RightHandThumb1
                    {
                      OFFSET 0.500017 -1.50005 2.65002
                      CHANNELS 6 Xposition Yposition Zposition Zrotation Xrotation Yrotation
                      JOINT RightHandThumb2
                      {
                        OFFSET 0.0537347 -3.8 3.70005
                        CHANNELS 6 Xposition Yposition Zposition Zrotation Xrotation Yrotation
                        JOINT RightHandThumb3
                        {
                          OFFSET 0.0310679 -3 2.69998
                          CHANNELS 6 Xposition Yposition Zposition Zrotation Xrotation Yrotation
                          End Site
                          {
                            OFFSET -7.21666e-05 -2.3 1.80002
                          }
                        }
                      }
                    }
                    JOINT RightHandIndex
                    {
                      OFFSET -0.000594948 -1.92886 1.60075
                      CHANNELS 6 Xposition Yposition Zposition Zrotation Xrotation Yrotation
                      JOINT RightHandIndex1
                      {
                        OFFSET 4.48889e-05 -8.30001 1.90002
                        CHANNELS 6 Xposition Yposition Zposition Zrotation Xrotation Yrotation
                        JOINT RightHandIndex2
                        {
                          OFFSET -1.79649e-05 -4.5 0.0418691
                          CHANNELS 6 Xposition Yposition Zposition Zrotation Xrotation Yrotation
                          JOINT RightHandIndex3
                          {
                            OFFSET -3.55847e-05 -3.4 -6.06014e-05
                            CHANNELS 6 Xposition Yposition Zposition Zrotation Xrotation Yrotation
                            End Site
                            {
                              OFFSET -5.67164e-05 -2.6 8.48598e-05
                            }
                          }
                        }
                      }
                    }
                    JOINT RightHandMiddle
                    {
                      OFFSET 0.250085 -2.20003 0.399984
                      CHANNELS 6 Xposition Yposition Zposition Zrotation Xrotation Yrotation
                      JOINT RightHandMiddle1
                      {
                        OFFSET -1.77707e-05 -8.30003 1.00424
                        CHANNELS 6 Xposition Yposition Zposition Zrotation Xrotation Yrotation
                        JOINT RightHandMiddle2
                        {
                          OFFSET 4.12877e-05 -4.64992 -4.75815e-05
                          CHANNELS 6 Xposition Yposition Zposition Zrotation Xrotation Yrotation
                          JOINT RightHandMiddle3
                          {
                            OFFSET -7.39062e-05 -3.23159 2.16952e-05
                            CHANNELS 6 Xposition Yposition Zposition Zrotation Xrotation Yrotation
                            End Site
                            {
                              OFFSET -2.24833e-05 -2.69995 -4.8726e-05
                            }
                          }
                        }
                      }
                    }
                    JOINT RightHandRing
                    {
                      OFFSET 0.499954 -2.14997 -0.800024
                      CHANNELS 6 Xposition Yposition Zposition Zrotation Xrotation Yrotation
                      JOINT RightHandRing1
                      {
                        OFFSET -4.45164e-05 -7.74993 -0.199931
                        CHANNELS 6 Xposition Yposition Zposition Zrotation Xrotation Yrotation
                        JOINT RightHandRing2
                        {
                          OFFSET 3.09063e-05 -3.82361 0
                          CHANNELS 6 Xposition Yposition Zposition Zrotation Xrotation Yrotation
                          JOINT RightHandRing3
                          {
                            OFFSET -5.17674e-05 -3.40004 -3.51468e-05
                            CHANNELS 6 Xposition Yposition Zposition Zrotation Xrotation Yrotation
                            End Site
                            {
                              OFFSET 6.78826e-05 -2.60004 7.00589e-05
                            }
                          }
                        }
                      }
                    }
                    JOINT RightHandPinky
                    {
                      OFFSET 0.749976 -1.74996 -1.83378
                      CHANNELS 6 Xposition Yposition Zposition Zrotation Xrotation Yrotation
                      JOINT RightHandPinky1
                      {
                        OFFSET 5.5288e-05 -7.15006 -0.999994
                        CHANNELS 6 Xposition Yposition Zposition Zrotation Xrotation Yrotation
                        JOINT RightHandPinky2
                        {
                          OFFSET 1.59833e-05 -3.00005 5.66575e-05
                          CHANNELS 6 Xposition Yposition Zposition Zrotation Xrotation Yrotation
                          JOINT RightHandPinky3
                          {
                            OFFSET -3.40869e-05 -2.34999 -3.83379e-05
                            CHANNELS 6 Xposition Yposition Zposition Zrotation Xrotation Yrotation
                            End Site
                            {
                              OFFSET 7.67168e-05 -2.1063 0.0167775
                            }
                          }
                        }
                      }
                    }
                  }
                }
              }
            }
          }
        }
      }
    }
  }
  JOINT LeftUpLeg
  {
    OFFSET 8.00001 0 0
    CHANNELS 6 Xposition Yposition Zposition Zrotation Xrotation Yrotation
    JOINT LeftLeg
    {
      OFFSET -1.1821e-05 -45 -1.00001
      CHANNELS 6 Xposition Yposition Zposition Zrotation Xrotation Yrotation
      JOINT LeftFoot
      {
        OFFSET -6.63685e-05 -41 -2.00005
        CHANNELS 6 Xposition Yposition Zposition Zrotation Xrotation Yrotation
        JOINT LeftToeBase
        {
          OFFSET -3.21293e-05 -7.5 12.5
          CHANNELS 6 Xposition Yposition Zposition Zrotation Xrotation Yrotation
          JOINT LeftFootToe
          {
            OFFSET 0 0 4
            CHANNELS 6 Xposition Yposition Zposition Zrotation Xrotation Yrotation
            End Site
            {
              OFFSET 0 0 0
            }
          }
        }
      }
    }
  }
  JOINT RightUpLeg
  {
    OFFSET -8.00001 0 0
    CHANNELS 6 Xposition Yposition Zposition Zrotation Xrotation Yrotation
    JOINT RightLeg
    {
      OFFSET 0 -45 -1.00006
      CHANNELS 6 Xposition Yposition Zposition Zrotation Xrotation Yrotation
      JOINT RightFoot
      {
        OFFSET -9.14722e-05 -41 -1.99987
        CHANNELS 6 Xposition Yposition Zposition Zrotation Xrotation Yrotation
        JOINT RightToeBase
        {
          OFFSET 3.61872e-05 -7.50001 12.4999
          CHANNELS 6 Xposition Yposition Zposition Zrotation Xrotation Yrotation
          JOINT RightFootToe
          {
            OFFSET 0 0 4
            CHANNELS 6 Xposition Yposition Zposition Zrotation Xrotation Yrotation
            End Site
            {
              OFFSET 0 0 0
            }
          }
        }
      }
    }
  }
}
MOTION
Frames:	3
Frame Time:	0.0111111
-362.982 72.8132 806.833 -1.43888 9.53796 -166.175 1.13687e-13 8 0 -0.624669 11.9094 -7.99045 0 8 1.13687e-13 0.400315 6.17726 -2.54313 0 8 1.13687e-13 0.165743 3.09358 -1.26561 5.68434e-14 8 1.13687e-13 0.164596 3.0955 -1.26211 0 17 0 4.4472 4.37197 -2.13121 0 10.8 1.13687e-13 11.1515 5.70367 -4.96734 5 17 0 3.80797 2.60583 -5.02541 6.45 -2.84217e-14 -1.13687e-13 -1.1666 -0.0365496 -2.98556 6.45 1.42109e-14 0 65.3156 -20.0523 20.5492 5.68434e-14 -32.4 -2 -32.5218 -57.646 -25.1816 -2.84217e-14 -25.65 2 -6.03319 -18.9957 -44.3086 -0.5 -1.5 2.65 -10.7783 -14.4271 15.4284 -2.84217e-14 -3.8 3.7 0.0290115 7.79192 -0.0243571 0 -3 2.7 0.000266607 34.5053 -0.0145514 -2.84217e-14 -1.9 1.6 -2.74907e-06 7.59641e-06 1.34034e-05 -1.42109e-14 -8.3 1.9 -15.5206 14.9238 2.34601 0 -4.5 0 -50.7533 0.0670915 -0.01438 0 -3.4 0 -34.9747 0.0464372 0.0169565 -0.25 -2.2 0.4 -2.74907e-06 7.59641e-06 1.34034e-05 1.42109e-14 -8.3 1 -56.1453 27.3219 18.1358 1.13687e-13 -4.65 -5.68434e-14 -8.88089 0.0491524 -0.0348018 0 -3.3 -5.68434e-14 -5.9431 0.0430449 -0.027183 -0.5 -2.15 -0.8 -2.74907e-06 7.59641e-06 1.34034e-05 -2.84217e-14 -7.75 -0.2 -68.0281 18.3534 17.6082 0 -3.8 0 -62.0642 0.0213992 0.0367305 -1.13687e-13 -3.4 0 -42.5316 -0.00446229 0.0405466 -0.75 -1.75 -1.85 -2.74907e-06 7.59641e-06 1.34034e-05 -2.84217e-14 -7.15 -1 -72.6724 11.0546 15.3562 1.13687e-13 -3 0 -5.57035 0.0428621 -0.00834702 -1.13687e-13 -2.35 0 -5.15793 0.0364748 -0.00401394 -5 17 0 14.3999 3.1456 -1.02354 -6.45 0 1.13687e-13 -2.04312 -1.49177 -2.29312 -6.45 2.84217e-14 0 -46.574 7.23254 -45.6095 5.68434e-14 -32.4 -2 0.441959 -60.9873 -2.70441 -5.68434e-14 -25.65 2 -2.25705 -5.68445 9.14079 0.5 -1.5 2.65 34.7277 38.4152 -76.2134 0 -3.8 3.7 0.674111 6.90231 0.169556 0 -3 2.7 0.0658334 7.63214 -0.058674 0 -1.9 1.6 -5.02262e-05 2.09743e-05 -3.23367e-05 -5.68434e-14 -8.3 1.9 5.24148 -3.18126 0.124509 0 -4.5 -1.13687e-13 55.7579 0.000314802 0.188496 0 -3.4 1.13687e-13 37.312 0.0817107 0.114767 0.25 -2.2 0.4 -5.02262e-05 2.09743e-05 -3.23367e-05 -5.68434e-14 -8.3 1 4.43981 6.46617 -0.399944 5.68434e-14 -4.65 0 76.7697 0.0147221 0.0428051 0 -3.3 -5.68434e-14 58.6905 0.0651436 0.013964 0.5 -2.15 -0.8 -5.02262e-05 2.09743e-05 -3.23367e-05 0 -7.75 -0.2 21.5247 0.923214 -0.633742 -2.84217e-14 -3.8 0 23.3043 -0.00548422 -0.0293273 -2.84217e-14 -3.4 5.68434e-14 17.9785 -0.00315046 -0.0163116 0.75 -1.75 -1.85 -5.02262e-05 2.09743e-05 -3.23367e-05 0 -7.15 -1 27.639 4.11412 -2.01174 2.84217e-14 -3 1.13687e-13 -0.0213718 0.00804878 -0.00128309 0 -2.35 -5.68434e-14 -0.021236 -0.0112715 -0.00605174 8 -2.84217e-14 -1.13687e-13 32.6276 -49.6643 30.8074 0 -45 -1 1.91191 39.6403 -15.1423 0 -41 -2 -11.8449 18.0449 -18.1173 5.68434e-14 -7.5 12.5 4.13732e-06 1.91803e-06 -9.45803e-06 0 0 4 2.11904 0.582308 15.4018 -8 -2.84217e-14 0 -22.019 -52.9173 -34.3096 5.68434e-14 -45 -1 -8.87482 71.3807 20.5992 0 -41 -2 -11.1956 18.403 13.8836 -1.13687e-13 -7.5 12.5 -4.98522e-07 -23.5853 -3.86318e-05 0 0 4 -13.1924 23.5511 57.3991 
-363.113 72.7351 806.959 -1.43458 9.89437 -166.194 0 8 0 -0.638322 11.8682 -8.02201 0 8 0 0.426834 5.95587 -2.58227 0 8 0 0.179743 2.98283 -1.2851 0 8 0 0.179571 2.97668 -1.28314 0 17 0 4.25929 4.96675 -1.88262 5.68434e-14 10.8 1.13687e-13 10.8735 6.0588 -4.32348 5 17 1.13687e-13 3.69414 2.97823 -5.09182 6.45 -1.42109e-14 0 -1.20219 -0.0465061 -3.02157 6.45 0 0 65.2255 -19.7416 20.3522 0 -32.4 -2 -31.6821 -57.1059 -24.6018 5.68434e-14 -25.65 2 -5.723 -18.2156 -43.6227 -0.5 -1.5 2.65 -10.3251 -14.1693 15.8924 0 -3.8 3.7 0.0249116 7.11567 -0.028036 2.84217e-14 -3 2.7 0.0178574 34.7065 -0.0145867 -2.84217e-14 -1.9 1.6 -2.74907e-06 7.59641e-06 1.34034e-05 0 -8.3 1.9 -15.933 14.8695 2.39329 5.68434e-14 -4.5 5.68434e-14 -49.4891 0.0531212 -0.0119833 0 -3.4 0 -34.0744 0.0366842 0.010518 -0.25 -2.2 0.4 -2.74907e-06 7.59641e-06 1.34034e-05 0 -8.3 1 -56.3676 27.162 18.0976 1.13687e-13 -4.65 0 -7.86668 0.0452004 -0.0333362 -1.13687e-13 -3.3 0 -5.10043 0.0401574 -0.0257056 -0.5 -2.15 -0.8 -2.74907e-06 7.59641e-06 1.34034e-05 -4.26326e-14 -7.75 -0.2 -67.51 18.1829 17.2301 1.13687e-13 -3.8 0 -61.1846 0.0213992 0.034826 0 -3.4 0 -41.7713 -0.00446229 0.0397409 -0.75 -1.75 -1.85 -2.74907e-06 7.59641e-06 1.34034e-05 -2.84217e-14 -7.15 -1 -70.2783 11.9014 15.0042 0 -3 0 -5.43909 0.0214168 -0.00464388 -1.13687e-13 -2.35 0 -5.03883 0.0186913 -0.00233228 -5 17 1.13687e-13 14.4111 3.49874 -1.17268 -6.45 0 1.13687e-13 -2.04879 -1.47543 -2.29333 -6.45 0 0 -46.8258 7.71635 -46.0058 5.68434e-14 -32.4 -2 1.47511 -63.7394 -1.99224 -5.68434e-14 -25.65 2 -1.77151 -4.50161 7.88771 0.5 -1.5 2.65 34.5457 41.1979 -75.7055 -1.13687e-13 -3.8 3.7 0.676394 5.83623 0.177941 -1.13687e-13 -3 2.7 0.0640389 7.63521 -0.0587717 5.68434e-14 -1.9 1.6 -5.02262e-05 2.09743e-05 -3.23367e-05 -5.68434e-14 -8.3 1.9 5.33386 -2.62014 0.0998226 -5.68434e-14 -4.5 0 57.1937 -0.00472392 0.187273 0 -3.4 0 38.3899 0.0805244 0.11714 0.25 -2.2 0.4 -5.02262e-05 2.09743e-05 -3.23367e-05 -5.68434e-14 -8.3 1 4.41791 6.7912 -0.418445 0 -4.65 5.68434e-14 77.5683 0.011994 0.0504867 -1.13687e-13 -3.3 0 60.0121 0.0828193 0.0194825 0.5 -2.15 -0.8 -5.02262e-05 2.09743e-05 -3.23367e-05 0 -7.75 -0.2 22.7815 1.30052 -0.774791 -2.84217e-14 -3.8 0 23.3735 -0.0125959 0.00583769 -2.84217e-14 -3.4 0 18.0196 -0.00258338 0.00589917 0.75 -1.75 -1.85 -5.02262e-05 2.09743e-05 -3.23367e-05 -5.68434e-14 -7.15 -1 28.0247 4.31283 -2.11801 -2.84217e-14 -3 -5.68434e-14 0.0102247 0.00519469 -5.42664e-05 0 -2.35 5.68434e-14 0.009581 -0.0112715 -0.00422732 8 2.84217e-14 0 32.507 -49.5631 30.5778 1.13687e-13 -45 -1 1.94382 39.8882 -15.2464 0 -41 -2 -11.8213 17.9996 -17.9484 -5.68434e-14 -7.5 12.5 4.13732e-06 1.91803e-06 -9.45803e-06 0 0 4 2.14086 0.584182 15.4011 -8 2.84217e-14 1.13687e-13 -21.9279 -52.6617 -34.164 5.68434e-14 -45 -1 -8.93254 71.3727 20.6896 5.68434e-14 -41 -2 -11.1956 18.3738 14.0202 -1.13687e-13 -7.5 12.5 -4.44089e-07 -23.5113 -3.861e-05 0 0 4 -13.107 23.6081 57.3654 
-363.227 72.6632 807.072 -1.42356 10.22 -166.218 -1.13687e-13 8 -1.13687e-13 -0.646771 11.8074 -8.04243 0 8 1.13687e-13 0.453843 5.71442 -2.61826 5.68434e-14 8 0 0.194165 2.86205 -1.30303 -5.68434e-14 8 1.13687e-13 0.194074 2.85739 -1.30105 0 17 0 4.06166 5.59614 -1.64344 0 10.8 -1.13687e-13 10.5882 6.4035 -3.70163 5 17 0 3.53668 3.37081 -5.19366 6.45 -1.42109e-14 -1.13687e-13 -1.24219 -0.0608795 -3.0517 6.45 1.42109e-14 0 65.0812 -19.432 20.1114 5.68434e-14 -32.4 -2 -30.8298 -56.5673 -23.9672 2.84217e-14 -25.65 2 -5.25385 -17.4355 -43.0628 -0.5 -1.5 2.65 -9.8645 -13.8865 16.3063 2.84217e-14 -3.8 3.7 0.0227185 6.4355 -0.031117 0 -3 2.7 0.0224135 34.5477 -0.0145588 -5.68434e-14 -1.9 1.6 -2.74907e-06 7.59641e-06 1.34034e-05 1.42109e-14 -8.3 1.9 -16.149 14.735 2.40016 0 -4.5 0 -48.4976 0.0472809 -0.0115272 -1.13687e-13 -3.4 5.68434e-14 -33.3898 0.0322997 0.0082753 -0.25 -2.2 0.4 -2.74907e-06 7.59641e-06 1.34034e-05 -1.42109e-14 -8.3 1 -56.4563 27.012 18.0131 0 -4.65 1.13687e-13 -7.09162 0.0348013 -0.0263593 1.13687e-13 -3.3 0 -4.44416 0.0310817 -0.0196006 -0.5 -2.15 -0.8 -2.74907e-06 7.59641e-06 1.34034e-05 -2.84217e-14 -7.75 -0.2 -66.9936 18.0198 16.8789 -1.13687e-13 -3.8 5.68434e-14 -60.433 0.0213992 0.0276081 0 -3.4 5.68434e-14 -41.1289 -0.00446229 0.0319881 -0.75 -1.75 -1.85 -2.74907e-06 7.59641e-06 1.34034e-05 -2.84217e-14 -7.15 -1 -67.5495 12.8689 14.6405 1.13687e-13 -3 -5.68434e-14 -5.84747 -0.0289062 0.00764756 -1.13687e-13 -2.35 0 -5.36011 -0.0235315 0.00320156 -5 17 0 14.4005 3.87229 -1.37563 -6.45 -2.84217e-14 0 -2.05369 -1.47483 -2.27574 -6.45 0 1.13687e-13 -47.134 8.12438 -46.3973 0 -32.4 -2 3.24955 -66.4733 -0.645886 -5.68434e-14 -25.65 2 -1.5307 -3.22366 6.78519 0.5 -1.5 2.65 34.216 44.0755 -75.2692 0 -3.8 3.7 0.678674 4.70636 0.192735 1.13687e-13 -3 2.7 0.062656 7.68109 -0.0600552 5.68434e-14 -1.9 1.6 -5.02262e-05 2.09743e-05 -3.23367e-05 0 -8.3 1.9 5.51582 -1.75318 0.0734663 0 -4.5 0 58.7053 -0.00968618 0.156041 0 -3.4 -5.68434e-14 39.5472 0.0658418 0.101162 0.25 -2.2 0.4 -5.02262e-05 2.09743e-05 -3.23367e-05 -5.68434e-14 -8.3 1 4.23245 7.53711 -0.443361 0 -4.65 0 78.7069 0.0167942 0.0809039 0 -3.3 0 62.0106 0.141571 0.035972 0.5 -2.15 -0.8 -5.02262e-05 2.09743e-05 -3.23367e-05 0 -7.75 -0.2 24.0977 1.9463 -0.978082 -2.84217e-14 -3.8 -5.68434e-14 23.8221 -0.0217762 0.0419267 0 -3.4 1.13687e-13 18.2938 -0.0020954 0.0291839 0.75 -1.75 -1.85 -5.02262e-05 2.09743e-05 -3.23367e-05 -5.68434e-14 -7.15 -1 28.2842 4.87482 -2.29948 2.84217e-14 -3 0 0.0215571 0.00158941 0.000540792 0 -2.35 0 0.0246404 -0.0112715 -0.00199406 8 -2.84217e-14 1.13687e-13 32.3496 -49.4924 30.2615 0 -45 -1 1.97107 40.1565 -15.3293 0 -41 -2 -11.811 17.9059 -17.7332 -5.68434e-14 -7.5 12.5 4.13732e-06 1.91803e-06 -9.45803e-06 5.68434e-14 -1.42109e-14 4 2.14341 0.57729 15.3992 -8 0 0 -21.8264 -52.4323 -34.0155 0 -45 -1 -8.99684 71.3632 20.7904 0 -41 -2 -11.1919 18.3518 14.1524 0 -7.5 12.5 -4.08078e-07 -23.4623 -3.85957e-05 0 0 4 -13.0298 23.6651 57.3389 
